<svg xmlns="http://www.w3.org/2000/svg" data-name="Layer 1" viewBox="0 0 100 100" x="0px" y="0px"><title>keychain by Gregor Cresnar</title><path d="M95.8,57.26a3.87,3.87,0,0,0-1.52-2.57L71.19,37.41a24.49,24.49,0,0,0-31.34-28l-3-3.27A16,16,0,0,0,12,26.05l.26.37a26.54,26.54,0,0,0-3,2.74q-.43.46-.83.93-.56.66-1.06,1.36a24.08,24.08,0,0,0-3.63,20.8A24.63,24.63,0,0,0,29.71,70.17l2.06,3.37a2.5,2.5,0,0,0,1.52,1.12l4.9,1.24-.68,2.83A4.65,4.65,0,0,0,41,84.33l2.82.67-1.14,4.94a2.5,2.5,0,0,0,.31,1.87l2.13,3.46a2.5,2.5,0,0,0,1.55,1.12L57.15,98.9A3.47,3.47,0,0,0,58,99a3.45,3.45,0,0,0,3.35-2.65l2.38-10a3.86,3.86,0,0,0-.47-2.94L48.12,58.86c.36-.56.68-1.13,1-1.71a18.35,18.35,0,0,0,4.1-.53,24.65,24.65,0,0,0,5-1.91l3.16,2.38a2.48,2.48,0,0,0,1.83.48l5-.65.41,2.88a4.65,4.65,0,0,0,5.26,3.93l2.86-.41.76,5a2.5,2.5,0,0,0,1,1.63l3.25,2.43a2.5,2.5,0,0,0,1.5.5l.36,0,10.72-1.54a3.45,3.45,0,0,0,2.92-3.9ZM14.43,14.41A11,11,0,0,1,33.15,9.52l1.82,2a24.93,24.93,0,0,0-9.55,9.76,24.32,24.32,0,0,0-9,2.5l-.37-.53A11,11,0,0,1,14.43,14.41Zm10,23.28a2.56,2.56,0,1,1-1.33.38A2.55,2.55,0,0,1,24.46,37.69Zm34.26,48-1.92,8-8-1.92-1-1.7,1.32-5.73a3.12,3.12,0,0,0-2.31-3.77l-4.28-1,1-4.28a3.12,3.12,0,0,0-2.29-3.76L35.5,70.07l-2.38-3.89A2.49,2.49,0,0,0,30.58,65,19.63,19.63,0,0,1,8.46,50.85,19,19,0,0,1,11.33,34.4q.4-.55.84-1.07t.65-.73a21.61,21.61,0,0,1,2.23-2.05l3.48,5a7.55,7.55,0,0,0,9.89,11.1h0a7.55,7.55,0,0,0-5.67-13.79l-3.43-5a19.54,19.54,0,0,1,23.8,29.38A2.5,2.5,0,0,0,43,60.1ZM83.93,67.76l-1.6-1.2-.88-5.81a3.12,3.12,0,0,0-3.54-2.65l-4.36.63-.63-4.36a3.12,3.12,0,0,0-3.5-2.65l-5.83.76L60,49.74a2.49,2.49,0,0,0-2.79-.14A19.61,19.61,0,0,1,52,51.78c-.27.07-.54.13-.83.18a24.55,24.55,0,0,0-18-30.1c-.64-.15-1.28-.27-1.92-.37A19.55,19.55,0,0,1,66,37.81a2.5,2.5,0,0,0,.92,2.64l24,18,1.17,8.16Z"/></svg>